<svg xmlns="http://www.w3.org/2000/svg" xmlns:xlink="http://www.w3.org/1999/xlink" viewBox="0 0 196.95033 191.41321"><defs><style>.cls-1{isolation:isolate;}.cls-2{fill:url(#Áåçûìÿííûé_ãðàäèåíò_222);}.cls-3{fill:#131f49;}.cls-4{fill:#00ebaa;}.cls-5{fill:url(#Áåçûìÿííûé_ãðàäèåíò_149);}.cls-6{fill:url(#Áåçûìÿííûé_ãðàäèåíò_149-2);}.cls-15,.cls-16,.cls-19,.cls-7{mix-blend-mode:screen;}.cls-8{fill:url(#Áåçûìÿííûé_ãðàäèåíò_11);}.cls-9{fill:url(#Áåçûìÿííûé_ãðàäèåíò_11-2);}.cls-10{fill:url(#Áåçûìÿííûé_ãðàäèåíò_149-3);}.cls-11{fill:url(#Áåçûìÿííûé_ãðàäèåíò_149-4);}.cls-12{fill:#93b8aa;}.cls-13{fill:url(#Áåçûìÿííûé_ãðàäèåíò_190);}.cls-14{fill:url(#Áåçûìÿííûé_ãðàäèåíò_149-5);}.cls-15{fill:url(#Áåçûìÿííûé_ãðàäèåíò_11-3);}.cls-16{fill:url(#Áåçûìÿííûé_ãðàäèåíò_11-4);}.cls-17{fill:#35709c;}.cls-18{fill:#22567d;}.cls-19{fill:url(#Áåçûìÿííûé_ãðàäèåíò_11-5);}.cls-20{fill:url(#Áåçûìÿííûé_ãðàäèåíò_236);}.cls-21{fill:url(#Áåçûìÿííûé_ãðàäèåíò_236-2);}.cls-22{fill:url(#Áåçûìÿííûé_ãðàäèåíò_222-2);}.cls-23{fill:url(#Áåçûìÿííûé_ãðàäèåíò_236-3);}.cls-24{fill:url(#Áåçûìÿííûé_ãðàäèåíò_236-4);}.cls-25{fill:url(#Áåçûìÿííûé_ãðàäèåíò_236-5);}.cls-26{fill:url(#Áåçûìÿííûé_ãðàäèåíò_236-6);}.cls-27{fill:url(#Áåçûìÿííûé_ãðàäèåíò_236-7);}.cls-28{fill:url(#Áåçûìÿííûé_ãðàäèåíò_236-8);}.cls-29{fill:url(#Áåçûìÿííûé_ãðàäèåíò_222-3);}.cls-30{fill:url(#Áåçûìÿííûé_ãðàäèåíò_222-4);}.cls-31{fill:url(#Áåçûìÿííûé_ãðàäèåíò_222-5);}.cls-32{fill:url(#Áåçûìÿííûé_ãðàäèåíò_222-6);}.cls-33{fill:url(#Áåçûìÿííûé_ãðàäèåíò_222-7);}.cls-34{fill:url(#Áåçûìÿííûé_ãðàäèåíò_277);}.cls-35{fill:url(#Áåçûìÿííûé_ãðàäèåíò_277-2);}.cls-36{fill:url(#Áåçûìÿííûé_ãðàäèåíò_277-3);}.cls-37{fill:url(#Áåçûìÿííûé_ãðàäèåíò_277-4);}.cls-38{fill:url(#Áåçûìÿííûé_ãðàäèåíò_277-5);}.cls-39{fill:url(#Áåçûìÿííûé_ãðàäèåíò_277-6);}.cls-40{fill:url(#Áåçûìÿííûé_ãðàäèåíò_277-7);}.cls-41{fill:url(#Áåçûìÿííûé_ãðàäèåíò_277-8);}.cls-42{fill:url(#Áåçûìÿííûé_ãðàäèåíò_277-9);}.cls-43{fill:url(#Áåçûìÿííûé_ãðàäèåíò_277-10);}.cls-44{fill:url(#Áåçûìÿííûé_ãðàäèåíò_277-11);}.cls-45{fill:url(#Áåçûìÿííûé_ãðàäèåíò_277-12);}</style><linearGradient id="Áåçûìÿííûé_ãðàäèåíò_222" x1="211.75695" y1="126.80672" x2="325.43921" y2="156.26708" gradientUnits="userSpaceOnUse"><stop offset="0" stop-color="#2d54a8"/><stop offset="0.1193" stop-color="#3f4ca9"/><stop offset="0.72491" stop-color="#9627b0"/><stop offset="1" stop-color="#b818b2"/></linearGradient><linearGradient id="Áåçûìÿííûé_ãðàäèåíò_149" x1="349.00922" y1="296.60323" x2="337.79895" y2="323.08901" gradientTransform="matrix(-0.8911, 0.4538, 0.4538, 0.8911, 404.2829, -248.6928)" gradientUnits="userSpaceOnUse"><stop offset="0.00503" stop-color="#22567d"/><stop offset="1" stop-color="#131f49"/></linearGradient><linearGradient id="Áåçûìÿííûé_ãðàäèåíò_149-2" x1="340.39898" y1="299.60112" x2="340.32274" y2="304.93737" xlink:href="#Áåçûìÿííûé_ãðàäèåíò_149"/><linearGradient id="Áåçûìÿííûé_ãðàäèåíò_11" x1="341.08223" y1="318.33826" x2="341.53963" y2="299.12716" gradientTransform="matrix(-0.8911, 0.4538, 0.4538, 0.8911, 404.2829, -248.6928)" gradientUnits="userSpaceOnUse"><stop offset="0" stop-color="#8a8677"/><stop offset="0.17133" stop-color="#706d61"/><stop offset="0.73961" stop-color="#201f1b"/><stop offset="1"/></linearGradient><linearGradient id="Áåçûìÿííûé_ãðàäèåíò_11-2" x1="347.47102" y1="318.48971" x2="347.9284" y2="299.2792" xlink:href="#Áåçûìÿííûé_ãðàäèåíò_11"/><linearGradient id="Áåçûìÿííûé_ãðàäèåíò_149-3" x1="275.05198" y1="180.22289" x2="335.65656" y2="162.38783" gradientTransform="matrix(1.0202, 0.1966, -0.1892, 0.9819, -148.1553, -99.06815)" xlink:href="#Áåçûìÿííûé_ãðàäèåíò_149"/><linearGradient id="Áåçûìÿííûé_ãðàäèåíò_149-4" x1="292.9427" y1="217.58491" x2="330.63471" y2="193.66999" gradientTransform="matrix(0.9982, 0.0598, -0.0598, 0.9982, -175.05621, -104.31385)" xlink:href="#Áåçûìÿííûé_ãðàäèåíò_149"/><linearGradient id="Áåçûìÿííûé_ãðàäèåíò_190" x1="319.62957" y1="140.3086" x2="206.72998" y2="161.74734" gradientTransform="matrix(-0.9852, -0.1715, -0.1715, 0.9852, 589.5581, 102.5471)" gradientUnits="userSpaceOnUse"><stop offset="0" stop-color="#f5ebcb"/><stop offset="0.14215" stop-color="#efe7c8"/><stop offset="0.33953" stop-color="#dddbc1"/><stop offset="0.56926" stop-color="#bfc7b5"/><stop offset="0.82129" stop-color="#96aca4"/><stop offset="1" stop-color="#759696"/></linearGradient><linearGradient id="Áåçûìÿííûé_ãðàäèåíò_149-5" x1="209.87989" y1="152.92994" x2="301.3406" y2="73.57166" gradientTransform="matrix(-0.9852, -0.1715, -0.1715, 0.9852, 401.8074, -3.01655)" xlink:href="#Áåçûìÿííûé_ãðàäèåíò_149"/><linearGradient id="Áåçûìÿííûé_ãðàäèåíò_11-3" x1="240.99502" y1="149.8555" x2="276.61105" y2="85.88503" gradientTransform="matrix(-0.9852, -0.1715, -0.1715, 0.9852, 401.8074, -3.01655)" xlink:href="#Áåçûìÿííûé_ãðàäèåíò_11"/><linearGradient id="Áåçûìÿííûé_ãðàäèåíò_11-4" x1="264.18557" y1="154.21342" x2="263.7966" y2="143.71113" gradientTransform="matrix(-0.9852, -0.1715, -0.1715, 0.9852, 401.8074, -3.01655)" xlink:href="#Áåçûìÿííûé_ãðàäèåíò_11"/><linearGradient id="Áåçûìÿííûé_ãðàäèåíò_11-5" x1="358.70258" y1="96.72568" x2="358.18388" y2="52.3772" gradientTransform="matrix(-0.8293, -0.5588, -0.5588, 0.8293, 599.2768, 379.8363)" xlink:href="#Áåçûìÿííûé_ãðàäèåíò_11"/><linearGradient id="Áåçûìÿííûé_ãðàäèåíò_236" x1="313.22918" y1="308.92262" x2="380.81456" y2="213.78313" gradientUnits="userSpaceOnUse"><stop offset="0" stop-color="#ffe1b3"/><stop offset="0.29609" stop-color="#ffab6e"/><stop offset="0.53866" stop-color="#ea80aa"/><stop offset="0.74528" stop-color="#da61d5"/><stop offset="0.90557" stop-color="#d14ef0"/><stop offset="1" stop-color="#cd47fa"/></linearGradient><linearGradient id="Áåçûìÿííûé_ãðàäèåíò_236-2" x1="171.09207" y1="183.45818" x2="266.4913" y2="292.11462" xlink:href="#Áåçûìÿííûé_ãðàäèåíò_236"/><linearGradient id="Áåçûìÿííûé_ãðàäèåíò_222-2" x1="197.06325" y1="231.69441" x2="212.65978" y2="165.14915" xlink:href="#Áåçûìÿííûé_ãðàäèåíò_222"/><linearGradient id="Áåçûìÿííûé_ãðàäèåíò_236-3" x1="206.45386" y1="270.37999" x2="274.55894" y2="298.45379" xlink:href="#Áåçûìÿííûé_ãðàäèåíò_236"/><linearGradient id="Áåçûìÿííûé_ãðàäèåíò_236-4" x1="206.33438" y1="210.45961" x2="232.50201" y2="240.26647" xlink:href="#Áåçûìÿííûé_ãðàäèåíò_236"/><linearGradient id="Áåçûìÿííûé_ãðàäèåíò_236-5" x1="365.22079" y1="272.5893" x2="386.40616" y2="230.73836" xlink:href="#Áåçûìÿííûé_ãðàäèåíò_236"/><linearGradient id="Áåçûìÿííûé_ãðàäèåíò_236-6" x1="329.53166" y1="297.89366" x2="358.51542" y2="279.56763" xlink:href="#Áåçûìÿííûé_ãðàäèåíò_236"/><linearGradient id="Áåçûìÿííûé_ãðàäèåíò_236-7" x1="320.12214" y1="257.1197" x2="342.60724" y2="231.25538" xlink:href="#Áåçûìÿííûé_ãðàäèåíò_236"/><linearGradient id="Áåçûìÿííûé_ãðàäèåíò_236-8" x1="371.42659" y1="217.11493" x2="361.54882" y2="155.59516" xlink:href="#Áåçûìÿííûé_ãðàäèåíò_236"/><linearGradient id="Áåçûìÿííûé_ãðàäèåíò_222-3" x1="221.56865" y1="136.22041" x2="242.7108" y2="116.11802" xlink:href="#Áåçûìÿííûé_ãðàäèåíò_222"/><linearGradient id="Áåçûìÿííûé_ãðàäèåíò_222-4" x1="223.67351" y1="173.71157" x2="253.82684" y2="149.10368" xlink:href="#Áåçûìÿííûé_ãðàäèåíò_222"/><linearGradient id="Áåçûìÿííûé_ãðàäèåíò_222-5" x1="318.33827" y1="114.06049" x2="356.63657" y2="135.54915" xlink:href="#Áåçûìÿííûé_ãðàäèåíò_222"/><linearGradient id="Áåçûìÿííûé_ãðàäèåíò_222-6" x1="195.79144" y1="171.35839" x2="220.57276" y2="138.25891" xlink:href="#Áåçûìÿííûé_ãðàäèåíò_222"/><linearGradient id="Áåçûìÿííûé_ãðàäèåíò_222-7" x1="268.48111" y1="103.3559" x2="304.61309" y2="114.9233" xlink:href="#Áåçûìÿííûé_ãðàäèåíò_222"/><linearGradient id="Áåçûìÿííûé_ãðàäèåíò_277" x1="201.8303" y1="270.32041" x2="217.98755" y2="298.2494" gradientUnits="userSpaceOnUse"><stop offset="0" stop-color="#a0ffd4"/><stop offset="0.29609" stop-color="#24ffbf"/><stop offset="0.47088" stop-color="#38bfd1"/><stop offset="0.65303" stop-color="#4b83e3"/><stop offset="0.80848" stop-color="#5858ef"/><stop offset="0.92902" stop-color="#613df7"/><stop offset="1" stop-color="#6433fa"/></linearGradient><linearGradient id="Áåçûìÿííûé_ãðàäèåíò_277-2" x1="189.74396" y1="235.7725" x2="211.12611" y2="264.51013" xlink:href="#Áåçûìÿííûé_ãðàäèåíò_277"/><linearGradient id="Áåçûìÿííûé_ãðàäèåíò_277-3" x1="174.13735" y1="94.78852" x2="177.90061" y2="117.19709" gradientTransform="translate(52.2878 41.6235) rotate(16.74425)" xlink:href="#Áåçûìÿííûé_ãðàäèåíò_277"/><linearGradient id="Áåçûìÿííûé_ãðàäèåíò_277-4" x1="351.47704" y1="290.07715" x2="375.42514" y2="272.11607" xlink:href="#Áåçûìÿííûé_ãðàäèåíò_277"/><linearGradient id="Áåçûìÿííûé_ãðàäèåíò_277-5" x1="366.29299" y1="241.33838" x2="380.31962" y2="216.022" xlink:href="#Áåçûìÿííûé_ãðàäèåíò_277"/><linearGradient id="Áåçûìÿííûé_ãðàäèåíò_277-6" x1="345.13006" y1="248.16271" x2="364.63062" y2="225.24104" xlink:href="#Áåçûìÿííûé_ãðàäèåíò_277"/><linearGradient id="Áåçûìÿííûé_ãðàäèåíò_277-7" x1="377.01621" y1="209.0347" x2="385.05593" y2="183.71821" xlink:href="#Áåçûìÿííûé_ãðàäèåíò_277"/><linearGradient id="Áåçûìÿííûé_ãðàäèåíò_277-8" x1="292.8241" y1="282.82996" x2="329.94343" y2="280.09306" xlink:href="#Áåçûìÿííûé_ãðàäèåíò_277"/><linearGradient id="Áåçûìÿííûé_ãðàäèåíò_277-9" x1="218.91486" y1="254.81554" x2="245.08664" y2="268.15803" xlink:href="#Áåçûìÿííûé_ãðàäèåíò_277"/><linearGradient id="Áåçûìÿííûé_ãðàäèåíò_277-10" x1="242.13094" y1="139.23292" x2="222.97256" y2="156.33862" xlink:href="#Áåçûìÿííûé_ãðàäèåíò_277"/><linearGradient id="Áåçûìÿííûé_ãðàäèåíò_277-11" x1="381.24617" y1="128.26962" x2="356.10074" y2="109.11123" xlink:href="#Áåçûìÿííûé_ãðàäèåíò_277"/><linearGradient id="Áåçûìÿííûé_ãðàäèåíò_277-12" x1="218.93315" y1="119.31671" x2="185.40588" y2="144.80424" xlink:href="#Áåçûìÿííûé_ãðàäèåíò_277"/></defs><g class="cls-1"><g id="layer_1" data-name="layer 1"><path class="cls-2" d="M297.2081,119.19281a62.98358,62.98358,0,0,1,21.4034,7.6559c6.508,3.9626,12.0946,9.6756,15.0853,16.6835a22.72822,22.72822,0,0,1,1.5511,14.2278c-1.168,4.7125-4.5068,9.0011-9.0789,10.6345-5.5496,1.9827-11.6338-.0893-17.1954-2.0379-13.5562-4.7497-28.414-8.8393-42.0686-4.3806-5.4782,1.7888-10.7764,4.9454-16.5275,4.5769-6.6431-.4258-12.3369-5.8722-14.1399-12.2802-3.34549-11.8903,5.6583-28.4001,17.7639-31.6505C268.2764,118.78921,282.4792,116.46741,297.2081,119.19281Z" transform="translate(-187.7507 -105.56365)"/><path class="cls-3" d="M244.283,179.19651c-2.1715,4.8752-2.3823,8.8827.9767,11.3337a33.21736,33.21736,0,0,0,8.60161-12.4016c-.79551-3.0427-2.28621-5.8319-5.41-6.2616a56.51111,56.51111,0,0,0-3.74641,6.4211C244.5589,178.59361,244.413,178.89911,244.283,179.19651Z" transform="translate(-187.7507 -105.56365)"/><path class="cls-4" d="M244.7049,178.28811a20.6574,20.6574,0,0,0-14.67719,4.4384c-.0866.2049-.1773.4019-.2559.6027a22.40828,22.40828,0,0,1,14.51119-4.1327C244.413,178.89911,244.5589,178.59361,244.7049,178.28811Z" transform="translate(-187.7507 -105.56365)"/><path class="cls-5" d="M244.283,179.19651c-2.1715,4.8752-2.3823,8.8827.9767,11.3337a23.22879,23.22879,0,0,1-13.63129,5.5844c-4.0757-1.312-4.2692-6.9229-1.8566-12.7854A22.40828,22.40828,0,0,1,244.283,179.19651Zm-8.1968-.6207a4.57707,4.57707,0,0,1,.839-4.1163l-.004-.008a11.21912,11.21912,0,0,0-3.97869,3.1619,28.99566,28.99566,0,0,0-2.9148,5.1131,20.6574,20.6574,0,0,1,14.67719-4.4384,56.51111,56.51111,0,0,1,3.74641-6.4211,20.48525,20.48525,0,0,0-8.699,1.3539,3.74027,3.74027,0,0,1,1.44419.2698l-2.7673,4.475Z" transform="translate(-187.7507 -105.56365)"/><path class="cls-6" d="M236.0862,178.57581l2.343-.6101,2.7673-4.475a3.74027,3.74027,0,0,0-1.44419-.2698,3.91645,3.91645,0,0,0-2.00681.5596,3.20485,3.20485,0,0,0-.8203.679A4.57707,4.57707,0,0,0,236.0862,178.57581Z" transform="translate(-187.7507 -105.56365)"/><g class="cls-7"><path class="cls-8" d="M239.75231,173.22091a24.48475,24.48475,0,0,1,6.35949-1.3929,39.90391,39.90391,0,0,0-3.3404,6.4134,20.32966,20.32966,0,0,0-12.74369,4.485,28.99846,28.99846,0,0,1,2.9148-5.113,11.21822,11.21822,0,0,1,3.97869-3.1619l.004.008a4.577,4.577,0,0,0-.839,4.1163l2.343-.6102,2.7672-4.4749A3.73943,3.73943,0,0,0,239.75231,173.22091Z" transform="translate(-187.7507 -105.56365)"/><path class="cls-9" d="M229.77181,183.32921a22.12629,22.12629,0,0,1,12.60309-4.157c-1.7739,4.2136-3.2189,8.2941-4.5494,9.5487a12.88345,12.88345,0,0,1-9.37159,3.7338C227.86091,190.01581,228.37751,186.71741,229.77181,183.32921Z" transform="translate(-187.7507 -105.56365)"/></g><polygon class="cls-10" points="104.667 118.859 84.191 124.086 139.173 141.031 156.002 130.526 104.667 118.859"/><polygon class="cls-11" points="105.838 109.142 104.607 125.345 136.796 132.867 134.8 115.245 105.838 109.142"/><polygon class="cls-3" points="140.165 131.334 137.236 115.762 134.8 115.245 136.796 132.867 140.165 131.334"/><path class="cls-4" d="M298.3488,207.20311c-2.4718-.4303-4.31249-1.7612-4.1-2.9821.2108-1.2108,2.3947-1.8514,4.86651-1.4211,2.46179.4286,4.30079,1.7695,4.09,2.9803C302.9927,207.00111,300.8106,207.63171,298.3488,207.20311Zm.5023-3.8924c-2.2516-.392-4.0861.196-4.222.9765s1.392,1.9539,3.6436,2.3459,4.0862-.196,4.2221-.9765S301.1027,203.70271,298.8511,203.31071Z" transform="translate(-187.7507 -105.56365)"/><path class="cls-12" d="M298.8511,203.31071c-2.2516-.392-4.0861.196-4.222.9765s1.392,1.9539,3.6436,2.3459,4.0862-.196,4.2221-.9765S301.1027,203.70271,298.8511,203.31071Z" transform="translate(-187.7507 -105.56365)"/><path class="cls-13" d="M350.4185,207.84411,345.495,222.03l-89.3046-18.2688,3.7981-12.8146Zm-52.0697-.641c2.4618.4286,4.6439-.202,4.85651-1.4229.21079-1.2108-1.62821-2.5517-4.09-2.9803-2.47181-.4303-4.65571.2103-4.86651,1.4211C294.03631,205.44191,295.877,206.77281,298.3488,207.20311Z" transform="translate(-187.7507 -105.56365)"/><polygon class="cls-3" points="157.744 116.466 68.44 98.198 71.139 101.823 105.838 109.142 134.8 115.245 137.236 115.762 161.88 120.96 157.744 116.466"/><polygon class="cls-3" points="162.668 102.28 157.744 116.466 161.88 120.96 188.268 43.946 184.681 38.909 162.668 102.28"/><polygon class="cls-14" points="90.114 25.106 72.238 85.383 162.668 102.28 184.681 38.909 90.114 25.106"/><polygon class="cls-15" points="184.681 38.909 90.114 25.106 68.44 98.198 85.68 101.724 178.769 55.929 184.681 38.909"/><polygon class="cls-16" points="162.668 102.28 72.238 85.383 70.178 92.334 160.395 108.829 162.668 102.28"/><polygon class="cls-3" points="84.191 124.086 83.523 124.998 139.395 143.478 156.111 132.318 156.002 130.526 139.173 141.031 84.191 124.086"/><polygon class="cls-3" points="81.7 171.402 14.892 106.788 13.551 107.978 80.404 173.726 81.7 171.402"/><polygon class="cls-3" points="81.7 171.402 80.404 173.726 109.839 169.614 115.574 168.811 116.222 168.721 122.861 167.794 123.392 162.517 81.7 171.402"/><path class="cls-17" d="M227.29941,211.76871l34.88969,29.548-18.9694,2.9941-33.72279-30.8072Zm1.725-.1605,34.78309,29.4517,6.7216-1.0684-36.31279-28.8901Zm15.3789,33.7818,12.74969,11.6532,18.34-4.4593-12.0498-10.2017Zm20.65829-3.2646,11.9263,10.094,6.8176-1.6652-11.9434-9.5053Zm19.9758,9.4182-6.874,1.6761,14.4767,12.2534,7.9243-1.5808Zm-8.3632,2.0322-18.4077,4.4871,12.8283,11.7185,19.997-3.992Z" transform="translate(-187.7507 -105.56365)"/><polygon class="cls-3" points="83.344 164.218 70.516 152.499 70.086 153.447 83.032 165.318 103.342 161.133 103.341 160.226 83.344 164.218"/><polygon class="cls-3" points="69.402 151.48 56.653 139.826 56.097 140.615 68.964 152.421 87.595 147.766 87.742 147.02 69.402 151.48"/><polygon class="cls-3" points="21.746 107.94 20.86 108.31 54.896 139.525 74.162 136.363 74.438 135.753 55.469 138.747 21.746 107.94"/><polygon class="cls-3" points="40.681 106.27 75.806 136.087 82.635 134.968 82.778 134.428 76.057 135.496 41.274 106.045 40.681 106.27"/><polygon class="cls-3" points="89.237 146.656 77.311 136.562 77.071 137.172 89.11 147.39 96.038 145.653 96.055 144.991 89.237 146.656"/><polygon class="cls-3" points="104.889 159.909 90.413 147.656 90.302 148.402 104.919 160.811 112.967 159.155 112.814 158.329 104.889 159.909"/><path class="cls-18" d="M242.6468,245.08831l19.266-3.1616.2763-.61-34.88969-29.548-17.8025,1.7349-.8864.3703Zm50.0226,21.2864,8.0487-1.6562-.1537-.8262-15.527-12.3487-6.874,1.6761-.1107.746Zm-34.833-7.3645,12.94591,11.8712,20.31069-4.1848-.0012-.9072-14.4176-12.2136-18.4077,4.4871Zm6.9855-16.2747,12.0385,10.2186,6.9278-1.7379.0173-.662-11.9434-9.5053-6.8005,1.0765Zm29.1208,12.2609,17.19961,13.0839-41.69161,8.8854-66.80809-64.6144,31.309-2.9839,31.556,24.0069,26.3132,20.0086Zm-64.91829-43.3882-.5928.2253,35.12509,29.8168,6.8289-1.1186.1435-.5402-36.31279-28.8901Zm46.32119,41.7215.1474-.7458-12.0498-10.2017L244.40331,245.39l-.55611.7889,12.8673,11.8059Z" transform="translate(-187.7507 -105.56365)"/><polygon class="cls-18" points="92.905 145.76 90.215 143.563 86.491 144.331 86.244 144.123 89.962 143.356 86.756 140.737 83.107 141.467 82.86 141.258 86.501 140.529 83.336 137.944 79.763 138.637 79.514 138.426 83.08 137.735 80.941 135.987 81.276 135.934 83.404 137.672 86.183 137.134 86.444 137.342 83.66 137.881 86.823 140.465 89.656 139.898 89.916 140.105 87.077 140.673 90.282 143.29 93.17 142.695 93.408 142.884 93.412 142.904 90.535 143.497 93.213 145.685 92.905 145.76"/><polygon class="cls-18" points="77.234 132.633 79.977 134.873 79.642 134.926 76.906 132.692 73.478 133.313 73.227 133.1 76.648 132.481 74.039 130.35 70.674 130.938 70.421 130.724 73.779 130.138 71.173 128.009 67.871 128.565 67.617 128.35 70.912 127.795 68.307 125.668 65.069 126.192 64.813 125.976 68.044 125.453 65.44 123.326 62.266 123.819 62.009 123.602 65.176 123.11 62.574 120.985 59.465 121.447 59.208 121.23 62.309 120.769 59.708 118.644 56.665 119.077 56.405 118.857 59.441 118.426 56.843 116.304 53.866 116.706 53.604 116.485 56.573 116.084 53.976 113.962 51.066 114.336 50.804 114.114 53.706 113.742 51.111 111.622 48.269 111.967 48.004 111.743 50.837 111.398 48.245 109.281 45.471 109.599 45.206 109.374 47.971 109.057 45.863 107.335 43.144 107.628 42.877 107.402 45.587 107.11 43.962 105.782 44.319 105.747 45.941 107.072 48.101 106.839 48.384 107.064 46.216 107.297 48.322 109.017 50.522 108.765 50.802 108.987 48.595 109.24 51.186 111.356 53.435 111.083 53.715 111.305 51.459 111.579 54.052 113.697 56.351 113.402 56.627 113.622 54.322 113.918 56.916 116.037 59.264 115.72 59.54 115.939 57.186 116.257 59.781 118.377 62.177 118.037 62.45 118.255 60.049 118.596 62.648 120.718 65.09 120.355 65.361 120.571 62.912 120.935 65.512 123.058 68.002 122.672 68.272 122.887 65.777 123.274 68.378 125.399 70.915 124.989 71.183 125.203 68.641 125.614 71.243 127.74 73.826 127.305 74.093 127.518 71.505 127.953 74.109 130.08 76.736 129.621 77.002 129.832 74.369 130.292 76.975 132.421 79.648 131.937 79.912 132.147 77.234 132.633"/><polygon class="cls-18" points="105.79 156.285 102.797 153.84 98.884 154.826 98.647 154.625 102.553 153.641 99.715 151.322 95.897 152.298 95.659 152.096 99.47 151.122 96.481 148.681 92.784 149.663 92.549 149.464 96.239 148.483 94.12 146.752 94.428 146.677 96.541 148.403 99.383 147.647 99.63 147.844 96.783 148.6 99.775 151.044 102.711 150.294 102.961 150.493 100.02 151.244 102.859 153.564 105.869 152.805 106.118 153.003 103.103 153.763 106.099 156.21 109.204 155.458 109.456 155.658 106.345 156.411 109.502 158.989 109.18 159.053 106.036 156.486 102 157.463 101.76 157.261 105.79 156.285"/><path class="cls-18" d="M247.1387,247.89021l.2335.2134,3.4187-.6626,3.09041,2.7266-3.48761.6976.2325.2125,3.4944-.699,3.1284,2.7601-3.5639.7348.2315.2116,3.5706-.7362,3.2104,2.8324.3012-.0732-3.2002-2.8234,3.6603-.7547,3.0926,2.7142.3015-.0733-3.0824-2.7052,3.65871-.7543,2.974,2.5962.302-.0734-2.96361-2.5872,3.6569-.754,2.8543,2.4786.3026-.0736-2.844-2.4695,2.9821-.6148-.24629-.2085-2.977.6138-3.09891-2.6909,2.9302-.5861-.2474-.2095-2.9252.5851-3.0591-2.6563,2.8789-.5579-.2487-.2105-2.8737.5569-2.3095-2.0054-.3277.0517,2.3205,2.0151-3.6693.7111-2.4376-2.128-.3271.0517,2.4487,2.1376-3.671.7114-2.5647-2.2508-.3263.0515,2.5756,2.2604-3.6725.7117-2.6905-2.3738-.3259.0515,2.7014,2.3834Zm11.6282-1.9949,3.0708,2.6808-3.6641.7329-3.0789-2.7021Zm7.0473,1.8854-3.6623.7326-3.0691-2.6792,3.67051-.7113Zm-.3127,3.6567-3.1083-2.7134,3.6634-.7328,3.10071,2.6924Zm-3.9701.8185-3.1175-2.736,3.6652-.7331,3.11,2.715Zm-7.0976-1.9398,3.6666-.7335,3.1193,2.7376-3.6593.7544Zm-3.3279-2.9361,3.6735-.7119,3.0807,2.7036-3.6656.7333Z" transform="translate(-187.7507 -105.56365)"/><path class="cls-18" d="M211.19891,215.05831l.2496.2281,2.5817-.2781,2.1068,1.8588-2.6282.3014.2479.2265,2.636-.3023,2.5587,2.2574-2.6957.3279.2477.2263,2.7035-.3287,2.5605,2.259-2.7625.3549.2449.2237,2.7701-.3558,2.561,2.2595-2.8285.3825.2447.2236,2.8361-.3835,2.5621,2.2604-2.8939.4109.2433.2222,2.9013-.4119,2.5634,2.2616-2.9586.4398.2406.2197,2.9659-.4408,2.5649,2.263-3.0225.4693.2405.2198,3.02979-.4705,2.5655,2.2634-3.086.4993.2393.2187,3.09309-.5005,2.5663,2.264-3.1488.5301.2382.2175,3.1558-.5312,2.5665,2.2644-3.2108.5611.2369.2165,3.2178-.5624,2.5683,2.2659-3.2725.5927.23571.2154,3.27949-.594,2.11751,1.8682.32589-.0514-2.1246-1.8745,3.6899-.6684,2.2172,1.9459.3263-.0515-2.2244-1.9522,3.68871-.6681,2.31779,2.0233.327-.0516-2.325-2.0297,3.68721-.6678,2.41919,2.1007.32781-.0518-2.42651-2.107,2.7874-.5049-.2511-.2126-2.7822.504-2.5273-2.1945,2.7466-.4801-.2524-.2137-2.7413.4791-2.5241-2.1918,2.7054-.4554-.2537-.2148-2.7002.4545-2.5222-2.1902,2.664-.431-.2551-.2161-2.6587.4302-2.5209-2.1889,2.6222-.4072-.2567-.2173-2.6167.4063-2.5184-2.1869,2.57991-.3834-.25661-.2174-2.5746.3827-2.5162-2.185,2.5372-.3602-.2596-.22-2.5318.3595-2.5129-2.182,2.4944-.3373-.2614-.2214-2.4888.3365-2.5111-2.1805,2.4508-.3148-.2616-.2215-2.4451.3141-2.50889-2.1786,2.40689-.2927-.2648-.2243-2.40119.2921-2.5054-2.1756,2.3625-.271-.2651-.2245-2.3567.2703-2.0456-1.7762,2.328-.2508-.2671-.2262-2.3221.2501-1.6178-1.4047-.3482.0339,1.6214,1.408-3.8203.4115-1.6541-1.444-.3474.0338,1.6578,1.4472-3.8201.4115-1.6901-1.4833-.3466.0338,1.6938,1.4865-3.8198.4114-1.7258-1.5226-.346.0338,1.7293,1.5257Zm11.1589-.947,2.0679,1.8051-3.8041.4363-2.085-1.8298ZM243.0029,235.995l-2.5504-2.2382,3.72-.6019,2.5384,2.2159Zm3.95541-.4082,2.53969,2.2171-3.6976.6462-2.5512-2.239Zm-6.75331-2.0473-2.5494-2.2374,3.731-.5793,2.5372,2.2149Zm-2.7984-2.4559-2.5481-2.2363,3.7425-.5562,2.5355,2.2134Zm-2.7971-2.4549-2.54639-2.2347,3.7542-.5331,2.53359,2.2118Zm-2.79829-2.4558-2.5444-2.2329,3.7665-.5094,2.531,2.2095Zm-2.7978-2.4554-2.5431-2.2318,3.7789-.4855,2.5295,2.2082Zm-2.7968-2.4544-2.5419-2.2309,3.7919-.4611,2.5278,2.2067Zm-2.7986-2.4561-2.5395-2.2288,3.8053-.4365,2.5249,2.2043Zm5.1531-3.3661-3.8041.4363-2.0654-1.803,3.8216-.4116Zm2.7672,2.4029-3.7906.461-2.5226-2.2022,3.8054-.4364Zm2.77019,2.4055-3.77749.4853-2.5255-2.2048,3.7919-.4611Zm2.7694,2.4048-3.7648.5091-2.52719-2.2062,3.77859-.4854Zm2.7709,2.4061-3.7524.5328-2.5287-2.2075,3.766-.5093Zm2.7726,2.4075-3.7406.556-2.5314-2.2099,3.7536-.5329Zm2.7718,2.4069-3.7288.579-2.5335-2.2116,3.7418-.5561Zm2.7742,2.4089-3.7178.6016-2.5352-2.2131,3.7301-.5792Zm2.7741,2.4089-3.7069.6239-2.53629-2.2142,3.71889-.6017Zm2.7745,2.4093-3.6962.6459-2.5378-2.2153,3.708-.6241Zm-.90969,3.0785-2.54051-2.2177,3.6974-.6462,2.5292,2.1962Zm-4.00741.7258-2.5535-2.2409,3.6987-.6464,2.5423,2.2194Zm-6.5744-1.5381,3.69981-.6467,2.55539,2.2426-3.6888.6682ZM239.216,236.89l3.7101-.6245,2.5533,2.2407-3.6988.6465Zm-2.8094-2.4786,3.7208-.6021,2.5525,2.24-3.7091.6243Zm-2.8098-2.4791,3.7317-.5794,2.5514,2.2392-3.7197.6018Zm-2.81069-2.4797,3.7432-.5564,2.55019,2.2382-3.7305.5792Zm-2.8091-2.4785,3.7547-.5331,2.54849,2.2367-3.74189.5561Zm-2.8107-2.4797,3.7669-.5093,2.5466,2.2349-3.7535.5329Zm-2.811-2.4801,3.7791-.4855,2.5454,2.2339-3.7657.5092Zm-2.8107-2.4798,3.7919-.4612,2.5443,2.233-3.778.4853Zm-2.8119-2.4808,3.8053-.4364,2.5419,2.2308-3.7908.461Zm-2.3601-2.0823,3.8211-.4116,2.0873,1.832-3.804.4363Z" transform="translate(-187.7507 -105.56365)"/><path class="cls-18" d="M260.6585,260.248l.222.2028,3.5782-.9511,2.6387,2.3281-3.68.9403.2246.2052,3.6862-.9419,2.6136,2.3059-3.767.9497.2237.2043,3.7733-.9512,2.639,2.3284-3.8769.9389.2257.2061,3.8832-.9404,2.1437,1.8914.3133-.0625-2.1556-1.9019,3.6072-.8735,2.3074,2.025.3137-.0626-2.3194-2.0355,3.6051-.873,2.4723,2.1582.3143-.0627-2.4843-2.1687,3.6026-.8724,2.6386,2.2911.3149-.0628-2.6506-2.3017,3.1918-.7729-.2394-.2029-3.1873.7719-2.7782-2.4125,3.1048-.7826-.2373-.201-3.1003.7815-2.6823-2.3292,3.0391-.7765-.2381-.2017-3.0346.7754-2.7781-2.4123,2.9537-.7851-.2353-.1993-2.94919.7839-2.18741-1.8993-.3024.0736,2.1932,1.9045-3.4906.9278-2.253-1.9668-.3019.0736,2.2589,1.9719-3.4939.9286-2.3181-2.0344-.3013.0735,2.3239,2.0395-3.4968.9293-2.3827-2.1021-.301.0734,2.3885,2.1072Zm11.3835-2.7638,2.7295,2.3828-3.5377.9039-2.6866-2.3578Zm2.9622,2.5859,2.6586,2.3209-3.5603.8975-2.6369-2.3142Zm3.6007-1.1827-3.5347.9033-2.7321-2.3852,3.4915-.928Zm2.915,2.5313-3.5574.8967-2.6596-2.3217,3.5356-.9034Zm-.5932,3.4844-2.73239-2.3853,3.55839-.897,2.77561,2.4101Zm-3.9065.946-2.6868-2.358,3.5613-.8977,2.72961,2.3829Zm-6.5496-1.3843,3.56371-.8983,2.68419,2.3557-3.60619.8733Zm-2.8444-2.5095,3.5412-.9048,2.636,2.3134-3.5627.8981Zm-2.8722-2.534,3.4977-.9297,2.6839,2.3555-3.5402.9046Z" transform="translate(-187.7507 -105.56365)"/><path class="cls-19" d="M233.9516,209.36741l-22.18579,2.1144,2.2719,1.5792,13.2617-1.2923,34.88969,29.548-.2763.61-5.1379.8431.78041.5426,5.88779-.9302,12.0499,10.2016-.1473.7459-2.4863.6212.5908.4107,3.224-.7858,14.4176,12.2136.0011.8366,6.3057,4.3834,13.74371-2.9291-17.19961-13.0839-2.1219-1.6135-26.3132-20.0086Zm44.2118,43.8523,6.874-1.6762,15.527,12.3487.1537.8263-8.0487,1.6563-14.6167-12.4091Zm-13.1018-11.0943,6.8005-1.0765,11.9434,9.5053-.0173.662-6.92789,1.7379-12.03841-10.2186Zm-36.03719-30.5172,5.1919-.5068,36.31289,28.8901-.1436.5402-6.8289,1.1185-35.12509-29.8167Z" transform="translate(-187.7507 -105.56365)"/><path class="cls-20" d="M331.0099,261.118c4.8195-7.8661,7.7622-16.6666,11.702-24.9695,3.9447-8.3132,9.1975-16.4301,17.0891-21.1622,2.458-1.4739,5.3626-2.6124,8.1506-1.9458,7.503,1.7947,6.9054,10.5209,6.4431,16.3057a165.00477,165.00477,0,0,1-3.8208,24.475c-3.9292,16.7759-11.8915,26.6767-26.7121,35.2094-4.5277,2.6068-9.1871,5.1393-14.27349,6.3326-6.92741,1.6253-26.48351-2.7463-20.50541-13.8224,2.2427-4.1544,7.8571-5.4894,11.40841-8.2487a44.98323,44.98323,0,0,0,10.481-12.1129Z" transform="translate(-187.7507 -105.56365)"/><path class="cls-21" d="M274.1144,265.79561c-1.9055-5.06-6.7665-8.4923-11.865-10.2925s-10.5534-2.2622-15.8683-3.2556c-13.40719-2.5055-26.48449-8.7964-35.05349-19.4079a41.04742,41.04742,0,0,1-2.7427-3.8295,46.26977,46.26977,0,0,1-3.3865-6.301c.0267.0635.0487.1278.0756.1912-.0269-.0634-.0489-.1277-.0756-.1912-.3207-.7393-.6201-1.4818-.8811-2.2302a70.6828,70.6828,0,0,1-4.7828-26.6541,44.21286,44.21286,0,0,1,4.659-19.5351,37.54371,37.54371,0,0,0-2.7552,3.0982c-3.4292,4.1718-6.8885,8.389-9.3019,13.22-5.0348,10.0783-4.9579,21.6613-3.5815,32.586,1.3132,10.4232,1.2162,21.6414,5.7889,31.3121,4.1805,8.8411,11.756,15.6599,19.9571,20.9873a86.0756,86.0756,0,0,0,26.41319,11.6015c7.9138,1.9245,16.6108,2.4972,23.8993-1.1374C271.9018,282.32261,276.9847,273.41751,274.1144,265.79561Z" transform="translate(-187.7507 -105.56365)"/><path class="cls-22" d="M204.31731,220.47891a22.56539,22.56539,0,0,1-.2756-15.0682c2.4929-7.4575,8.002-13.3114,11.1045-20.5859a17.12743,17.12743,0,0,0,1.7306-6.954,7.0089,7.0089,0,0,0-3.2622-6.0704,7.1927,7.1927,0,0,0-6.9531.5451,13.40145,13.40145,0,0,0-2.468,1.9442,44.21286,44.21286,0,0,0-4.659,19.5351A70.6828,70.6828,0,0,0,204.31731,220.47891Z" transform="translate(-187.7507 -105.56365)"/><path class="cls-23" d="M243.2465,294.998a25.04118,25.04118,0,0,0,8.3847.4372c7.2644-.951,10.78811-8.2158,4.8733-13.6139-2.5424-2.3203-5.9307-3.4323-9.2087-4.482q-10.9173-3.4959-21.83449-6.9917a11.71227,11.71227,0,0,0-3.645-.7514,3.96319,3.96319,0,0,0-3.2588,1.5193,5.09018,5.09018,0,0,0-.5149,3.5752c.9006,6.6023,5.4563,11.3442,11.034,14.5513A49.90472,49.90472,0,0,0,243.2465,294.998Z" transform="translate(-187.7507 -105.56365)"/><path class="cls-24" d="M219.69921,234.27841a14.89829,14.89829,0,0,0,5.3662,2.0493,7.621,7.621,0,0,0,4.3346-.3292c4.85319-2.1425,1.4534-7.7618-1.6808-9.5412a39.37387,39.37387,0,0,1-4.0061-2.2736c-3.1879-2.3422-3.9449-6.5016-5.877-9.7805-1.1517-1.9546-4.0931-6.3452-6.104-2.7243-2.4837,4.4724-.0457,12.5115,2.2344,16.5787A16.73557,16.73557,0,0,0,219.69921,234.27841Z" transform="translate(-187.7507 -105.56365)"/><path class="cls-25" d="M365.0424,260.37821c-1.0385,2.0386-2.0255,4.6792-.5546,6.4317a3.90324,3.90324,0,0,0,3.9621,1.0064,9.52132,9.52132,0,0,0,3.6595-2.2147,37.22149,37.22149,0,0,0,12.5248-24.6361c.2223-2.5999-.2655-6.5813-3.6647-6.7944-2.8218-.177-4.2994,3.3946-5.3477,5.4394C372.0777,246.52391,368.5689,253.45561,365.0424,260.37821Z" transform="translate(-187.7507 -105.56365)"/><path class="cls-26" d="M332.1645,290.29081a8.6259,8.6259,0,0,0-2.83819,1.5686,2.93383,2.93383,0,0,0-.93451,2.944c.4819,1.4196,2.2151,1.9225,3.7071,2.0686a22.95686,22.95686,0,0,0,15.4412-4.1378,9.51209,9.51209,0,0,0,3.9263-4.8875c.5692-2.0537-.2695-4.6077-2.2588-5.3717-3.1539-1.2113-5.0358,1.6449-7.00329,3.3994C339.6716,288.133,335.2859,289.04971,332.1645,290.29081Z" transform="translate(-187.7507 -105.56365)"/><path class="cls-27" d="M330.2748,239.603a6.605,6.605,0,0,1,.861-.3322c1.6132-.4963,3.6778.0349,4.3352,1.5895a4.44893,4.44893,0,0,1,.0005,2.7986c-.9971,3.9582-3.9427,7.4227-6.83,10.2026a8.17846,8.17846,0,0,1-3.2201,2.0682,3.64116,3.64116,0,0,1-4.45309-1.6096c-.86811-1.8324.37939-2.6313,1.36339-3.9562C324.8089,247.02821,326.2708,241.47891,330.2748,239.603Z" transform="translate(-187.7507 -105.56365)"/><path class="cls-28" d="M361.091,181.73991c.2632.4209.5171.8476.7581,1.2823a17.60193,17.60193,0,0,1,2.0465,7.7782,68.38189,68.38189,0,0,1,.64571,6.8633c-.04531,1.9464-.19121,4.2638,1.36669,5.4316a3.57992,3.57992,0,0,0,4.1537-.2589c2.7082-2.0181,2.6331-5.0372,3.2198-7.9596.697-3.4716,1.85781-6.5935,1.9979-10.1988a32.4964,32.4964,0,0,0-5.6312-19.7116,15.56733,15.56733,0,0,0-4.8272-4.7726,7.74933,7.74933,0,0,0-6.576-.731c-2.8438,1.1238-4.4674,4.3321-4.4685,7.3899a16.29857,16.29857,0,0,0,2.9806,8.5437C358.1316,177.557,359.735,179.57151,361.091,181.73991Z" transform="translate(-187.7507 -105.56365)"/><path class="cls-29" d="M226.85251,125.07911a9.36973,9.36973,0,0,0-2.2488,2.5403,3.66075,3.66075,0,0,0-.2239,3.2775,3.78527,3.78527,0,0,0,4.2415,1.6431,11.06834,11.06834,0,0,0,4.2215-2.4196c1.76029-1.3914,15.68209-10.3735,10.33879-12.3007C237.844,115.89461,230.392,122.02341,226.85251,125.07911Z" transform="translate(-187.7507 -105.56365)"/><path class="cls-30" d="M233.4196,159.563a10.107,10.107,0,0,0-1.71979,4.1844,4.29124,4.29124,0,0,0,1.60959,4.0323c2.1612,1.4578,5.0251-.0616,7.1625-1.5541l17.1951-12.0069a12.84354,12.84354,0,0,0,3.1601-2.7681,4.34935,4.34935,0,0,0,.7761-3.9752c-2.0577-5.5057-11.0946-1.7423-14.4627-.1112A33.66908,33.66908,0,0,0,233.4196,159.563Z" transform="translate(-187.7507 -105.56365)"/><path class="cls-31" d="M326.53331,118.14311c-1.82431.1779-4.08111,1.0302-4.099,2.8631-.01421,1.4565,1.44419,2.4309,2.72589,3.1229q8.59067,4.638,17.1812,9.2761c2.8238,1.5246,7.6824,3.2522,9.6395-.6176,1.4187-2.8053-1.6859-5.7329-3.5854-7.3797A29.40427,29.40427,0,0,0,326.53331,118.14311Z" transform="translate(-187.7507 -105.56365)"/><path class="cls-32" d="M197.46641,164.04941a8.05463,8.05463,0,0,0,.138,3.3221,3.31011,3.31011,0,0,0,2.2199,2.3081c1.7314.417,3.3047-1.0257,4.5034-2.3428q4.0047-4.4001,8.0096-8.8002c2.2182-2.4372,4.4949-4.8201,6.7265-7.2448,1.7353-1.8854,4.5463-4.2661,5.0724-6.8874a3.90868,3.90868,0,0,0-1.4336-3.9739c-1.4317-.9672-3.3532-.6058-5.0033-.0936-5.3277,1.6535-10.9842,4.3727-14.2704,8.9258A31.49442,31.49442,0,0,0,197.46641,164.04941Z" transform="translate(-187.7507 -105.56365)"/><path class="cls-33" d="M279.25831,107.83141c-.73981.4838-1.51271,1.2304-1.34771,2.0988.1833.9647,1.3503,1.3264,2.3169,1.5004q5.80485,1.04475,11.6097,2.0888c1.2874.2316,7.155,2.2241,8.0287.7798,1.7299-2.8594-7.4652-7.7393-9.2517-8.237A14.06248,14.06248,0,0,0,279.25831,107.83141Z" transform="translate(-187.7507 -105.56365)"/><path class="cls-34" d="M217.99891,283.97561a17.38953,17.38953,0,0,0-3.6903-2.4116c-.4753-.2774-.9246-.6082-1.4092-.8688a2.83864,2.83864,0,0,0-.4989-.2363c-.0646-.0518-.1412-.1124-.2334-.1844-1.66-1.2952-3.0215-2.4445-5.2912-2.479-1.5733-.0239-3.5851.3214-4.4613,1.8036a5.27877,5.27877,0,0,0-.7097,4.5429,14.8399,14.8399,0,0,0,1.7541,3.7894,14.477,14.477,0,0,0,7.9422,5.5648c2.4983.7647,6.2256-.3137,7.6581-2.6178C220.56861,288.45061,219.96681,285.921,217.99891,283.97561Z" transform="translate(-187.7507 -105.56365)"/><path class="cls-35" d="M206.54941,254.40141a20.32558,20.32558,0,0,1-3.3734-5.4166c-.5224-1.1029-2.3771-5.6205-4.3112-4.6867-2.714,1.3105-.8887,6.6684-.0644,8.6164,1.4782,3.4935,3.5747,6.1439,7.614,5.9948a1.35361,1.35361,0,0,0,1.429-1.1722A4.12859,4.12859,0,0,0,206.54941,254.40141Z" transform="translate(-187.7507 -105.56365)"/><path class="cls-36" d="M191.79121,189.62451a.6265.6265,0,0,0-.9089-.2734c-4.103,2.6588-3.2335,9.1444-1.9606,13.0847.2183.6756,1.5617.9619,1.7777.1342C191.68151,198.80631,193.51931,193.37471,191.79121,189.62451Z" transform="translate(-187.7507 -105.56365)"/><path class="cls-37" d="M369.0097,277.10941a1.795,1.795,0,0,0-2.2958-1.4442,13.48744,13.48744,0,0,0-3.2853,1.7809,10.38454,10.38454,0,0,0-2.5549,2.3502,15.47767,15.47767,0,0,0-1.7537,2.4263,8.28453,8.28453,0,0,0-.7056,2.7607c-.1079.5692.4406.858.9465.7675a13.32741,13.32741,0,0,0,3.1801-.6698,14.53909,14.53909,0,0,0,3.2731-2.0647,7.4407,7.4407,0,0,0,2.2579-2.8446A6.276,6.276,0,0,0,369.0097,277.10941Z" transform="translate(-187.7507 -105.56365)"/><path class="cls-38" d="M377.5006,216.02091c-2.8626.9825-3.6786,5.153-4.7686,7.6524-1.71469,3.9319-3.5739,7.4542-3.4168,11.8347.0586,1.6316,2.3198,1.7159,3.1749.7087a32.3833,32.3833,0,0,0,7.0285-14.2286C379.7767,220.68891,380.482,214.99751,377.5006,216.02091Z" transform="translate(-187.7507 -105.56365)"/><path class="cls-39" d="M356.67,228.08161a48.41862,48.41862,0,0,0-4.73,7.2157,9.00037,9.00037,0,0,0-.8811,6.4209c.39241,1.164,1.7749,1.2661,2.745.923,5.0611-1.7897,7.6493-8.3896,8.0498-13.3809C362.0724,226.533,357.9288,226.48481,356.67,228.08161Z" transform="translate(-187.7507 -105.56365)"/><path class="cls-40" d="M384.4561,187.45851c-.0849-.7769-1.1402-4.5111-2.7667-3.0339-1.4734,1.3382-1.7045,4.0958-1.9019,5.9511a24.84392,24.84392,0,0,0,.6356,10.2652,1.65347,1.65347,0,0,0,2.9678,0A31.38,31.38,0,0,0,384.4561,187.45851Z" transform="translate(-187.7507 -105.56365)"/><path class="cls-41" d="M317.1804,277.42941c-3.0257.7892-6.1319,1.7179-9.0863,2.7555-2.6395.927-4.5811,2.4481-6.8793,3.9025-.4079.2583-.109.8418.2911.8922,3.3953.4274,6.1995.8512,9.5622-.3729a17.72373,17.72373,0,0,0,7.8501-5.3194C319.7719,278.19721,318.17031,277.17121,317.1804,277.42941Z" transform="translate(-187.7507 -105.56365)"/><path class="cls-42" d="M242.2196,263.21841c-2.5837-2.1195-6.2022-2.7721-9.33119-3.6919-1.0384-.3054-5.6985-2.5318-6.526-1.3671-2.1115,2.9719,3.0639,5.8968,5.0955,6.7595,3.09279,1.3132,7.46679,1.9501,10.57369.3754A1.2072,1.2072,0,0,0,242.2196,263.21841Z" transform="translate(-187.7507 -105.56365)"/><path class="cls-43" d="M238.2129,143.54311c-3.4937-.5135-7.10859,1.1281-9.62009,3.4759-1.8413,1.7213-5.9685,5.3238-4.6759,8.2504a1.988,1.988,0,0,0,1.8276,1.1505c2.9442.2842,4.9935-3.1491,6.9472-4.8892a54.64758,54.64758,0,0,0,6.2766-6.4688C239.451,144.46311,238.8704,143.63971,238.2129,143.54311Z" transform="translate(-187.7507 -105.56365)"/><path class="cls-44" d="M373.1154,121.24511a15.10887,15.10887,0,0,0-2.49209-5.1365,18.23433,18.23433,0,0,0-4.34331-4.2181c-3.1119-2.2181-7.6785-3.8175-11.1049-1.4413a1.76921,1.76921,0,0,0-.3706,2.3942c.8814,1.2605,2.0874,1.6739,3.4064,2.3764a23.6592,23.6592,0,0,1,4.2026,3.0373c2.36581,2.0282,5.4272,4.3122,8.6061,4.7154C372.1526,123.11621,373.3609,122.55471,373.1154,121.24511Z" transform="translate(-187.7507 -105.56365)"/><path class="cls-45" d="M203.78091,129.31031c-2.5482-1.2044-4.9837,1.0806-6.829,2.5457a6.16486,6.16486,0,0,0-2.3296,3.4374,3.73315,3.73315,0,0,0,.4795,3.5633,2.04252,2.04252,0,0,0,2.4306.5259c-1.3854.5031.7942-.2087,1.0606-.3844a6.28972,6.28972,0,0,0,1.0392-1.0017,11.785,11.785,0,0,0,2.2409-2.8416c.6591-1.3584,2.9728-2.8652,2.8605-4.4705A1.6075,1.6075,0,0,0,203.78091,129.31031Z" transform="translate(-187.7507 -105.56365)"/></g></g></svg>